<svg width="48" height="42" viewBox="0 0 48 42" fill="none" xmlns="http://www.w3.org/2000/svg" xmlns:xlink="http://www.w3.org/1999/xlink">
<path d="M22.709,10.366C31.421,6.901 40.948,9.637 45.275,13.827C46.212,14.734 47.008,15.655 47.69,16.57C48.079,14.421 48.11,12.281 47.736,10.211C46.369,2.653 39.239,-1.629 32.847,0.583C26.483,2.785 24.001,7.064 24.001,7.064C24.001,7.064 21.519,2.785 15.155,0.583C8.762,-1.629 1.632,2.653 0.266,10.211C-0.743,15.789 1.167,21.878 5.221,27.26C6.074,27.546 6.969,27.762 7.917,27.886C13.596,28.633 15.637,27.114 18.036,26.097C19.628,25.423 20.827,26.188 20.769,26.725C20.678,27.557 17.539,28.979 18.212,29.278C20.87,30.457 24.144,30.467 26.611,28.36C29.676,25.742 30.823,27.532 30.823,27.532C30.823,27.532 29.3,31.415 24.716,33.343C20.891,34.952 16.884,35.349 13.221,34.937C16.38,37.169 20.007,39.041 24.001,40.377C35.42,36.557 43.855,28.374 46.829,19.819C44.814,17.831 42.343,16.599 39.398,16.153C33.735,15.294 31.664,16.773 29.246,17.742C27.64,18.385 26.457,17.596 26.526,17.06C26.632,16.23 29.8,14.87 29.132,14.558C26.498,13.327 23.225,13.252 20.717,15.31C17.601,17.866 16.489,16.055 16.489,16.055C16.489,16.055 18.088,12.203 22.709,10.366ZM20.542,21.01L22.742,21.01L22.742,18.81L25.259,18.81L25.259,21.01L27.459,21.01L27.459,23.528L25.259,23.528L25.259,25.728L22.742,25.728L22.742,23.528L20.542,23.528L20.542,21.01Z" fill="url(#pf_0_13001_1336)"/>
<path d="M20.543,21.01L22.743,21.01L22.743,18.81L25.26,18.81L25.26,21.01L27.46,21.01L27.46,23.528L25.277,23.528C28.52,25.167 34.478,27.605 41.636,28.69C43.992,25.903 45.764,22.886 46.83,19.819C44.815,17.831 42.344,16.599 39.398,16.153C33.735,15.294 31.665,16.773 29.246,17.742C27.64,18.385 26.457,17.596 26.526,17.06C26.633,16.23 29.8,14.87 29.133,14.558C26.499,13.327 23.226,13.252 20.718,15.31C17.601,17.866 16.49,16.055 16.49,16.055C16.49,16.055 18.089,12.203 22.71,10.365C31.422,6.9 40.949,9.636 45.275,13.826C46.213,14.733 47.009,15.654 47.69,16.569C48.079,14.42 48.111,12.28 47.737,10.21C46.37,2.652 39.239,-1.63 32.847,0.582C26.483,2.784 24.001,7.063 24.001,7.063C24.001,7.063 21.519,2.784 15.156,0.582C11.505,-0.681 7.614,0.177 4.693,2.55C6.065,5.488 7.673,8.234 12.252,13.755C15.975,18.244 20.543,21.01 20.543,21.01Z" fill="url(#pf_0_13001_1337)"/>
<g opacity="0.31">
<path d="M40.553,3.299C34.541,0.279 28.337,4.978 26.369,7.46C29.763,6.745 32.733,6.378 36.49,7.168C42.049,8.336 44.13,10.343 46.612,13.308C46.173,7.814 42.703,4.379 40.553,3.299Z" fill="url(#pf_0_13001_1338)"/>
</g>
<defs>
<linearGradient id="pf_0_13001_1336" x1="6.398" y1="32.427" x2="41.669" y2="-2.844" gradientUnits="userSpaceOnUse">
<stop stop-color="#0076C1"/>
<stop offset="0.074" stop-color="#0B82C6"/>
<stop offset="0.277" stop-color="#269ED3"/>
<stop offset="0.455" stop-color="#36AFDA"/>
<stop offset="0.587" stop-color="#3CB5DD"/>
</linearGradient>
<linearGradient id="pf_0_13001_1337" x1="6.279" y1="32.507" x2="41.656" y2="-2.87" gradientUnits="userSpaceOnUse">
<stop stop-color="#00A482"/>
<stop offset="1" stop-color="#79DD83"/>
</linearGradient>
<linearGradient id="pf_0_13001_1338" x1="35.721" y1="11.015" x2="43.057" y2="4.226" gradientUnits="userSpaceOnUse">
<stop stop-color="#00A482"/>
<stop offset="1" stop-color="#79DD83"/>
</linearGradient>
</defs>
</svg>
