<svg width="62" height="54" viewBox="0 0 62 54" fill="none" xmlns="http://www.w3.org/2000/svg" xmlns:xlink="http://www.w3.org/1999/xlink">
<path d="M32.999,20C32.999,18.343 31.656,17 29.999,17C28.342,17 26.999,18.343 26.999,20L32.999,20ZM26.999,30.666C26.999,32.323 28.342,33.666 29.999,33.666C31.656,33.666 32.999,32.323 32.999,30.666L26.999,30.666ZM29.999,38.333C28.342,38.333 26.999,39.676 26.999,41.333C26.999,42.99 28.342,44.333 29.999,44.333L29.999,38.333ZM30.026,44.333C31.682,44.333 33.026,42.99 33.026,41.333C33.026,39.676 31.682,38.333 30.026,38.333L30.026,44.333ZM26.306,6.378L28.903,7.881L28.903,7.881L26.306,6.378ZM4.374,44.262L6.97,45.765L6.97,45.765L4.374,44.262ZM55.624,44.262L58.221,42.759L58.221,42.759L55.624,44.262ZM33.691,6.378L36.288,4.874L36.288,4.874L33.691,6.378ZM56.275,50.156L54.511,47.73L54.511,47.73L56.275,50.156ZM57.359,48.276L60.343,48.587L60.343,48.587L57.359,48.276ZM2.639,48.276L-0.345,48.587L-0.345,48.587L2.639,48.276ZM3.723,50.156L5.487,47.73L5.487,47.73L3.723,50.156ZM28.915,2.885L30.134,5.627L30.134,5.627L28.915,2.885ZM31.082,2.885L32.301,0.144L32.301,0.144L31.082,2.885ZM26.999,20L26.999,30.666L32.999,30.666L32.999,20L26.999,20ZM29.999,44.333L30.026,44.333L30.026,38.333L29.999,38.333L29.999,44.333ZM23.71,4.874L1.777,42.759L6.97,45.765L28.903,7.881L23.71,4.874ZM8.066,53.666L51.932,53.666L51.932,47.666L8.066,47.666L8.066,53.666ZM58.221,42.759L36.288,4.874L31.095,7.881L53.028,45.765L58.221,42.759ZM51.932,53.666C53.087,53.666 54.161,53.669 55.025,53.59C55.874,53.512 57.02,53.324 58.04,52.583L54.511,47.73C54.829,47.498 55.018,47.565 54.477,47.615C53.952,47.663 53.205,47.666 51.932,47.666L51.932,53.666ZM53.028,45.765C53.666,46.867 54.038,47.515 54.259,47.993C54.487,48.486 54.335,48.357 54.376,47.965L60.343,48.587C60.474,47.333 60.062,46.247 59.705,45.474C59.34,44.686 58.799,43.758 58.221,42.759L53.028,45.765ZM58.039,52.583C59.339,51.638 60.177,50.185 60.343,48.587L54.376,47.965C54.385,47.871 54.435,47.786 54.511,47.73L58.039,52.583ZM1.777,42.759C1.199,43.758 0.658,44.686 0.293,45.474C-0.064,46.247 -0.476,47.333 -0.345,48.587L5.622,47.965C5.663,48.357 5.511,48.486 5.739,47.993C5.96,47.515 6.332,46.867 6.97,45.765L1.777,42.759ZM8.066,47.666C6.793,47.666 6.046,47.663 5.521,47.615C4.98,47.565 5.168,47.498 5.487,47.73L1.958,52.583C2.978,53.324 4.124,53.512 4.973,53.59C5.837,53.669 6.911,53.666 8.066,53.666L8.066,47.666ZM-0.345,48.587C-0.179,50.185 0.659,51.638 1.958,52.583L5.487,47.73C5.563,47.786 5.613,47.871 5.622,47.965L-0.345,48.587ZM28.903,7.881C29.538,6.783 29.914,6.141 30.217,5.712C30.529,5.271 30.493,5.467 30.134,5.627L27.697,0.144C26.547,0.655 25.812,1.55 25.321,2.244C24.821,2.95 24.287,3.879 23.71,4.874L28.903,7.881ZM36.288,4.874C35.711,3.879 35.177,2.95 34.677,2.244C34.185,1.55 33.45,0.655 32.301,0.144L29.864,5.627C29.505,5.467 29.469,5.271 29.781,5.712C30.084,6.141 30.459,6.783 31.095,7.881L36.288,4.874ZM30.134,5.627C30.048,5.665 29.95,5.665 29.864,5.627L32.301,0.144C30.836,-0.508 29.162,-0.508 27.697,0.144L30.134,5.627Z" fill="#FF4F4E"/>
</svg>
