<svg width="28" height="16" viewBox="0 0 28 16" fill="none" xmlns="http://www.w3.org/2000/svg" xmlns:xlink="http://www.w3.org/1999/xlink">
<path d="M15.414,12.586L14.354,11.525L14.354,11.525L15.414,12.586ZM27.061,3.061C27.646,2.475 27.646,1.525 27.061,0.939C26.475,0.354 25.525,0.354 24.939,0.939L27.061,3.061ZM12.586,12.586L13.646,11.525L13.646,11.525L12.586,12.586ZM3.061,0.939C2.475,0.354 1.525,0.354 0.939,0.939C0.354,1.525 0.354,2.475 0.939,3.061L3.061,0.939ZM16.475,13.646L27.061,3.061L24.939,0.939L14.354,11.525L16.475,13.646ZM13.646,11.525L3.061,0.939L0.939,3.061L11.525,13.646L13.646,11.525ZM14.354,11.525C14.158,11.72 13.842,11.72 13.646,11.525L11.525,13.646C12.892,15.013 15.108,15.013 16.475,13.646L14.354,11.525Z" fill="#B6F09C"/>
</svg>
