<svg width="20" height="16" viewBox="0 0 20 16" fill="none" xmlns="http://www.w3.org/2000/svg" xmlns:xlink="http://www.w3.org/1999/xlink">
<path d="M19.061,3.061C19.646,2.475 19.646,1.525 19.061,0.939C18.475,0.354 17.525,0.354 16.939,0.939L19.061,3.061ZM7,13L5.939,14.061C6.525,14.646 7.475,14.646 8.061,14.061L7,13ZM3.061,6.939C2.475,6.354 1.525,6.354 0.939,6.939C0.354,7.525 0.354,8.475 0.939,9.061L3.061,6.939ZM16.939,0.939L5.939,11.939L8.061,14.061L19.061,3.061L16.939,0.939ZM8.061,11.939L3.061,6.939L0.939,9.061L5.939,14.061L8.061,11.939Z" fill="#24AE7C"/>
</svg>
