<svg width="36" height="26" viewBox="0 0 36 26" fill="none" xmlns="http://www.w3.org/2000/svg" xmlns:xlink="http://www.w3.org/1999/xlink">
<path d="M35.179,3.179C35.829,2.528 35.829,1.472 35.179,0.821C34.528,0.171 33.472,0.171 32.821,0.821L35.179,3.179ZM12,24L10.821,25.179C11.472,25.829 12.528,25.829 13.179,25.179L12,24ZM3.179,12.821C2.528,12.171 1.472,12.171 0.821,12.821C0.171,13.472 0.171,14.528 0.821,15.179L3.179,12.821ZM32.821,0.821L10.821,22.821L13.179,25.179L35.179,3.179L32.821,0.821ZM13.179,22.821L3.179,12.821L0.821,15.179L10.821,25.179L13.179,22.821Z" fill="#24AE7C"/>
</svg>
