<svg width="40" height="32" viewBox="0 0 40 32" fill="none" xmlns="http://www.w3.org/2000/svg" xmlns:xlink="http://www.w3.org/1999/xlink">
<path d="M5.061,2.939C4.475,2.354 3.525,2.354 2.939,2.939C2.354,3.525 2.354,4.475 2.939,5.061L5.061,2.939ZM22.828,17.172L21.768,16.111L21.768,16.111L22.828,17.172ZM37.061,5.061C37.646,4.475 37.646,3.525 37.061,2.939C36.475,2.354 35.525,2.354 34.939,2.939L37.061,5.061ZM6,3.5L34,3.5L34,0.5L6,0.5L6,3.5ZM36.5,6L36.5,24L39.5,24L39.5,6L36.5,6ZM32,28.5L8,28.5L8,31.5L32,31.5L32,28.5ZM3.5,24L3.5,6L0.5,6L0.5,24L3.5,24ZM34,3.5C35.381,3.5 36.5,4.619 36.5,6L39.5,6C39.5,2.962 37.038,0.5 34,0.5L34,3.5ZM6,0.5C2.962,0.5 0.5,2.962 0.5,6L3.5,6C3.5,4.619 4.619,3.5 6,3.5L6,0.5ZM16.111,18.232C18.259,20.38 21.741,20.38 23.889,18.232L21.768,16.111C20.791,17.087 19.209,17.087 18.232,16.111L16.111,18.232ZM2.939,5.061L14.939,17.061L17.061,14.939L5.061,2.939L2.939,5.061ZM14.939,17.061L16.111,18.232L18.232,16.111L17.061,14.939L14.939,17.061ZM23.889,18.232L25.061,17.061L22.939,14.939L21.768,16.111L23.889,18.232ZM25.061,17.061L37.061,5.061L34.939,2.939L22.939,14.939L25.061,17.061ZM37.303,27.182L25.061,14.939L22.939,17.061L35.182,29.303L37.303,27.182ZM36.5,24C36.5,25.243 35.998,26.366 35.182,27.182L37.303,29.303C38.659,27.948 39.5,26.071 39.5,24L36.5,24ZM35.182,27.182C34.366,27.998 33.243,28.5 32,28.5L32,31.5C34.071,31.5 35.948,30.659 37.303,29.303L35.182,27.182ZM4.818,29.303L17.061,17.061L14.939,14.939L2.697,27.182L4.818,29.303ZM8,28.5C6.757,28.5 5.634,27.998 4.818,27.182L2.697,29.303C4.052,30.659 5.929,31.5 8,31.5L8,28.5ZM4.818,27.182C4.002,26.366 3.5,25.243 3.5,24L0.5,24C0.5,26.071 1.341,27.948 2.697,29.303L4.818,27.182Z" fill="#686B6E"/>
</svg>
