<svg width="18" height="24" viewBox="0 0 18 24" fill="none" xmlns="http://www.w3.org/2000/svg" xmlns:xlink="http://www.w3.org/1999/xlink">
<path d="M3.727,8.439L4.367,7.671L4.367,7.671L3.727,8.439ZM3,2C3,1.448 2.552,1 2,1C1.448,1 1,1.448 1,2L3,2ZM15,2C15,1.448 14.552,1 14,1C13.448,1 13,1.448 13,2L15,2ZM12.273,8.439L12.913,9.207L12.913,9.207L12.273,8.439ZM1,22C1,22.552 1.448,23 2,23C2.552,23 3,22.552 3,22L1,22ZM3.727,15.561L4.367,16.329L4.367,16.329L3.727,15.561ZM12.273,15.561L11.633,16.329L11.633,16.329L12.273,15.561ZM13,22C13,22.552 13.448,23 14,23C14.552,23 15,22.552 15,22L13,22ZM13.453,16.679L12.636,17.254L12.636,17.254L13.453,16.679ZM13.897,17.626L12.931,17.886L12.931,17.886L13.897,17.626ZM2.103,17.626L3.069,17.886L3.069,17.886L2.103,17.626ZM2.547,16.679L3.364,17.254L3.364,17.254L2.547,16.679ZM13.897,6.374L12.931,6.114L12.931,6.114L13.897,6.374ZM13.453,7.321L12.636,6.746L12.636,6.746L13.453,7.321ZM2.547,7.321L3.364,6.746L3.364,6.746L2.547,7.321ZM2.103,6.374L1.137,6.634L1.137,6.634L2.103,6.374ZM0,1C-0.552,1 -1,1.448 -1,2C-1,2.552 -0.552,3 0,3L0,1ZM16,3C16.552,3 17,2.552 17,2C17,1.448 16.552,1 16,1L16,3ZM0,21C-0.552,21 -1,21.448 -1,22C-1,22.552 -0.552,23 0,23L0,21ZM16,23C16.552,23 17,22.552 17,22C17,21.448 16.552,21 16,21L16,23ZM8.64,11.232L4.367,7.671L3.087,9.207L7.36,12.768L8.64,11.232ZM3,4.752L3,2L1,2L1,4.752L3,4.752ZM13,2L13,4.752L15,4.752L15,2L13,2ZM11.633,7.671L7.36,11.232L8.64,12.768L12.913,9.207L11.633,7.671ZM3,22L3,19.248L1,19.248L1,22L3,22ZM4.367,16.329L8.64,12.768L7.36,11.232L3.087,14.793L4.367,16.329ZM7.36,12.768L11.633,16.329L12.913,14.793L8.64,11.232L7.36,12.768ZM13,19.248L13,22L15,22L15,19.248L13,19.248ZM11.633,16.329C12.309,16.893 12.501,17.063 12.636,17.254L14.271,16.103C13.949,15.645 13.506,15.287 12.913,14.793L11.633,16.329ZM15,19.248C15,18.476 15.008,17.906 14.863,17.366L12.931,17.886C12.992,18.111 13,18.368 13,19.248L15,19.248ZM12.636,17.254C12.77,17.446 12.87,17.659 12.931,17.886L14.863,17.366C14.741,16.914 14.541,16.486 14.271,16.103L12.636,17.254ZM3,19.248C3,18.368 3.008,18.111 3.069,17.886L1.137,17.366C0.992,17.906 1,18.476 1,19.248L3,19.248ZM3.087,14.793C2.494,15.287 2.051,15.645 1.729,16.103L3.364,17.254C3.499,17.063 3.691,16.893 4.367,16.329L3.087,14.793ZM3.069,17.886C3.13,17.659 3.23,17.446 3.364,17.254L1.729,16.103C1.459,16.486 1.259,16.914 1.137,17.366L3.069,17.886ZM13,4.752C13,5.632 12.992,5.889 12.931,6.114L14.863,6.634C15.008,6.094 15,5.524 15,4.752L13,4.752ZM12.913,9.207C13.506,8.713 13.949,8.355 14.271,7.897L12.636,6.746C12.501,6.937 12.309,7.107 11.633,7.671L12.913,9.207ZM12.931,6.114C12.87,6.341 12.77,6.554 12.636,6.746L14.271,7.897C14.541,7.514 14.741,7.086 14.863,6.634L12.931,6.114ZM4.367,7.671C3.691,7.107 3.499,6.937 3.364,6.746L1.729,7.897C2.051,8.355 2.494,8.713 3.087,9.207L4.367,7.671ZM1,4.752C1,5.524 0.992,6.094 1.137,6.634L3.069,6.114C3.008,5.889 3,5.632 3,4.752L1,4.752ZM3.364,6.746C3.23,6.554 3.13,6.341 3.069,6.114L1.137,6.634C1.259,7.086 1.459,7.514 1.729,7.897L3.364,6.746ZM0,3L16,3L16,1L0,1L0,3ZM0,23L16,23L16,21L0,21L0,23Z" fill="#79B5EC"/>
</svg>
