<svg width="28" height="28" viewBox="0 0 28 28" fill="none" xmlns="http://www.w3.org/2000/svg" xmlns:xlink="http://www.w3.org/1999/xlink">
<path d="M3.394,1.272C2.808,0.687 1.858,0.687 1.272,1.272C0.687,1.858 0.687,2.808 1.272,3.394L3.394,1.272ZM24.606,26.727C25.191,27.313 26.141,27.313 26.727,26.727C27.313,26.141 27.313,25.191 26.727,24.606L24.606,26.727ZM26.727,3.394C27.313,2.808 27.313,1.858 26.727,1.272C26.141,0.687 25.191,0.687 24.606,1.272L26.727,3.394ZM1.272,24.606C0.687,25.191 0.687,26.141 1.272,26.727C1.858,27.313 2.808,27.313 3.394,26.727L1.272,24.606ZM1.272,3.394L24.606,26.727L26.727,24.606L3.394,1.272L1.272,3.394ZM24.606,1.272L1.272,24.606L3.394,26.727L26.727,3.394L24.606,1.272Z" fill="#FFFFFF"/>
</svg>
