<svg width="38" height="34" viewBox="0 0 38 34" fill="none" xmlns="http://www.w3.org/2000/svg" xmlns:xlink="http://www.w3.org/1999/xlink">
<path d="M10.155,21.488C9.504,22.139 9.504,23.194 10.155,23.845C10.806,24.496 11.861,24.496 12.512,23.845L10.155,21.488ZM18,16L19.178,14.821C18.528,14.171 17.472,14.171 16.821,14.821L18,16ZM23.488,23.845C24.139,24.496 25.194,24.496 25.845,23.845C26.496,23.194 26.496,22.139 25.845,21.488L23.488,23.845ZM16.333,31C16.333,31.92 17.079,32.667 18,32.667C18.92,32.667 19.667,31.92 19.667,31L16.333,31ZM24.61,7.163L26.046,6.317L26.046,6.317L24.61,7.163ZM30.272,22.62C29.562,23.206 29.462,24.256 30.048,24.966C30.634,25.676 31.685,25.776 32.394,25.19L30.272,22.62ZM3.798,23.499C4.447,24.151 5.502,24.153 6.155,23.503C6.807,22.854 6.809,21.798 6.159,21.146L3.798,23.499ZM12.512,23.845L19.178,17.179L16.821,14.821L10.155,21.488L12.512,23.845ZM16.821,17.179L23.488,23.845L25.845,21.488L19.178,14.821L16.821,17.179ZM16.333,16L16.333,31L19.667,31L19.667,16L16.333,16ZM3,13.5C3,7.517 7.85,2.667 13.833,2.667L13.833,-0.667C6.009,-0.667 -0.333,5.676 -0.333,13.5L3,13.5ZM13.833,2.667C17.81,2.667 21.288,4.808 23.174,8.009L26.046,6.317C23.585,2.141 19.038,-0.667 13.833,-0.667L13.833,2.667ZM25.5,9.333C29.642,9.333 33,12.691 33,16.833L36.333,16.833C36.333,10.85 31.483,6 25.5,6L25.5,9.333ZM33,16.833C33,19.162 31.941,21.241 30.272,22.62L32.394,25.19C34.797,23.205 36.333,20.198 36.333,16.833L33,16.833ZM6.159,21.146C4.205,19.185 3,16.485 3,13.5L-0.333,13.5C-0.333,17.402 1.246,20.939 3.798,23.499L6.159,21.146ZM23.174,8.009C23.666,8.844 24.56,9.333 25.5,9.333L25.5,6C25.711,6 25.924,6.109 26.046,6.317L23.174,8.009Z" fill="#24AE7C"/>
</svg>
