<svg width="56" height="60" viewBox="0 0 56 60" fill="none" xmlns="http://www.w3.org/2000/svg" xmlns:xlink="http://www.w3.org/1999/xlink">
<path d="M52,27.666C53.657,27.666 55,26.323 55,24.666C55,23.009 53.657,21.666 52,21.666L52,27.666ZM4,21.666C2.343,21.666 1,23.009 1,24.666C1,26.323 2.343,27.666 4,27.666L4,21.666ZM49,31.333C49,32.99 50.343,34.333 52,34.333C53.657,34.333 55,32.99 55,31.333L49,31.333ZM28,59.666C29.657,59.666 31,58.323 31,56.666C31,55.009 29.657,53.666 28,53.666L28,59.666ZM4.872,52.298L7.545,50.936L7.545,50.936L4.872,52.298ZM8.368,55.794L7.006,58.467L7.006,58.467L8.368,55.794ZM47.632,9.538L46.27,12.211L46.27,12.211L47.632,9.538ZM51.128,13.034L53.801,11.672L53.801,11.672L51.128,13.034ZM8.368,9.538L9.73,12.211L9.73,12.211L8.368,9.538ZM4.872,13.034L7.545,14.396L7.545,14.396L4.872,13.034ZM41.667,3.333C41.667,1.676 40.324,0.333 38.667,0.333C37.01,0.333 35.667,1.676 35.667,3.333L41.667,3.333ZM35.667,14C35.667,15.657 37.01,17 38.667,17C40.324,17 41.667,15.657 41.667,14L35.667,14ZM20.333,3.333C20.333,1.676 18.99,0.333 17.333,0.333C15.676,0.333 14.333,1.676 14.333,3.333L20.333,3.333ZM14.333,14C14.333,15.657 15.676,17 17.333,17C18.99,17 20.333,15.657 20.333,14L14.333,14ZM36.788,46.545C35.616,45.373 33.717,45.373 32.545,46.545C31.374,47.717 31.374,49.616 32.545,50.788L36.788,46.545ZM40,54L37.879,56.121C39.05,57.293 40.95,57.293 42.121,56.121L40,54ZM54.121,44.121C55.293,42.949 55.293,41.05 54.121,39.878C52.95,38.707 51.05,38.707 49.879,39.878L54.121,44.121ZM52,21.666L4,21.666L4,27.666L52,27.666L52,21.666ZM16.8,11.666L39.2,11.666L39.2,5.666L16.8,5.666L16.8,11.666ZM7,43.866L7,21.466L1,21.466L1,43.866L7,43.866ZM49,21.466L49,31.333L55,31.333L55,21.466L49,21.466ZM16.8,59.666L28,59.666L28,53.666L16.8,53.666L16.8,59.666ZM1,43.866C1,46.057 0.998,47.88 1.119,49.365C1.243,50.885 1.512,52.311 2.199,53.66L7.545,50.936C7.36,50.574 7.193,50.025 7.099,48.876C7.002,47.693 7,46.156 7,43.866L1,43.866ZM16.8,53.666C14.51,53.666 12.973,53.664 11.79,53.567C10.641,53.473 10.092,53.306 9.73,53.121L7.006,58.467C8.355,59.155 9.782,59.423 11.301,59.547C12.786,59.669 14.609,59.666 16.8,59.666L16.8,53.666ZM2.199,53.66C3.254,55.73 4.936,57.413 7.006,58.467L9.73,53.121C8.789,52.642 8.024,51.877 7.545,50.936L2.199,53.66ZM39.2,11.666C41.49,11.666 43.027,11.669 44.21,11.765C45.359,11.859 45.908,12.027 46.27,12.211L48.994,6.865C47.645,6.178 46.218,5.909 44.699,5.785C43.214,5.664 41.391,5.666 39.2,5.666L39.2,11.666ZM55,21.466C55,19.276 55.002,17.452 54.881,15.968C54.757,14.448 54.488,13.021 53.801,11.672L48.455,14.396C48.64,14.759 48.807,15.308 48.901,16.456C48.998,17.64 49,19.177 49,21.466L55,21.466ZM46.27,12.211C47.211,12.691 47.976,13.456 48.455,14.396L53.801,11.672C52.746,9.603 51.064,7.92 48.994,6.865L46.27,12.211ZM16.8,5.666C14.609,5.666 12.786,5.664 11.301,5.785C9.782,5.909 8.355,6.178 7.006,6.865L9.73,12.211C10.092,12.027 10.641,11.859 11.79,11.765C12.973,11.669 14.51,11.666 16.8,11.666L16.8,5.666ZM7,21.466C7,19.177 7.002,17.64 7.099,16.456C7.193,15.308 7.36,14.759 7.545,14.396L2.199,11.672C1.512,13.021 1.243,14.448 1.119,15.968C0.998,17.452 1,19.276 1,21.466L7,21.466ZM7.006,6.865C4.936,7.92 3.254,9.603 2.199,11.672L7.545,14.396C8.024,13.456 8.789,12.691 9.73,12.211L7.006,6.865ZM35.667,3.333L35.667,14L41.667,14L41.667,3.333L35.667,3.333ZM14.333,3.333L14.333,14L20.333,14L20.333,3.333L14.333,3.333ZM32.545,50.788L37.879,56.121L42.121,51.878L36.788,46.545L32.545,50.788ZM42.121,56.121L54.121,44.121L49.879,39.878L37.879,51.878L42.121,56.121Z" fill="#FFD147"/>
</svg>
