<svg width="36" height="36" viewBox="0 0 36 36" fill="none" xmlns="http://www.w3.org/2000/svg" xmlns:xlink="http://www.w3.org/1999/xlink">
<path d="M32.821,35.178C33.472,35.829 34.528,35.829 35.178,35.179C35.829,34.528 35.829,33.472 35.179,32.822L32.821,35.178ZM28.956,26.599C28.306,25.948 27.25,25.948 26.599,26.599C25.949,27.25 25.949,28.305 26.599,28.956L28.956,26.599ZM35.179,32.822L28.956,26.599L26.599,28.956L32.821,35.178L35.179,32.822ZM30.556,17.111C30.556,24.536 24.536,30.556 17.111,30.556L17.111,33.889C26.377,33.889 33.889,26.377 33.889,17.111L30.556,17.111ZM17.111,30.556C9.686,30.556 3.667,24.536 3.667,17.111L0.333,17.111C0.333,26.377 7.845,33.889 17.111,33.889L17.111,30.556ZM3.667,17.111C3.667,9.686 9.686,3.667 17.111,3.667L17.111,0.333C7.845,0.333 0.333,7.845 0.333,17.111L3.667,17.111ZM17.111,3.667C24.536,3.667 30.556,9.686 30.556,17.111L33.889,17.111C33.889,7.845 26.377,0.333 17.111,0.333L17.111,3.667Z" fill="#CDE9DF"/>
</svg>
