<svg width="48" height="58" viewBox="0 0 48 58" fill="none" xmlns="http://www.w3.org/2000/svg" xmlns:xlink="http://www.w3.org/1999/xlink">
<path d="M12.605,18.504L13.885,16.968L13.885,16.968L12.605,18.504ZM9.999,1.333C9.999,0.228 9.104,-0.667 7.999,-0.667C6.895,-0.667 5.999,0.228 5.999,1.333L9.999,1.333ZM41.999,1.333C41.999,0.228 41.104,-0.667 39.999,-0.667C38.895,-0.667 37.999,0.228 37.999,1.333L41.999,1.333ZM35.394,18.504L36.674,20.041L36.674,20.041L35.394,18.504ZM5.999,54.666C5.999,55.771 6.895,56.666 7.999,56.666C9.104,56.666 9.999,55.771 9.999,54.666L5.999,54.666ZM12.605,37.495L13.885,39.031L13.885,39.031L12.605,37.495ZM35.394,37.495L34.113,39.031L34.113,39.031L35.394,37.495ZM37.999,54.666C37.999,55.771 38.895,56.666 39.999,56.666C41.104,56.666 41.999,55.771 41.999,54.666L37.999,54.666ZM38.542,40.476L36.906,41.627L36.906,41.627L38.542,40.476ZM39.725,43.002L37.793,43.521L37.793,43.521L39.725,43.002ZM8.274,43.002L10.205,43.521L10.205,43.521L8.274,43.002ZM9.457,40.476L11.093,41.627L11.093,41.627L9.457,40.476ZM39.725,12.998L37.793,12.478L37.793,12.478L39.725,12.998ZM38.542,15.524L36.906,14.372L36.906,14.372L38.542,15.524ZM9.457,15.524L11.093,14.372L11.093,14.372L9.457,15.524ZM8.274,12.998L6.343,13.517L6.343,13.517L8.274,12.998ZM2.666,-0.667C1.561,-0.667 0.666,0.228 0.666,1.333C0.666,2.438 1.561,3.333 2.666,3.333L2.666,-0.667ZM45.333,3.333C46.437,3.333 47.333,2.438 47.333,1.333C47.333,0.228 46.437,-0.667 45.333,-0.667L45.333,3.333ZM2.666,52.666C1.561,52.666 0.666,53.562 0.666,54.666C0.666,55.771 1.561,56.666 2.666,56.666L2.666,52.666ZM45.333,56.666C46.437,56.666 47.333,55.771 47.333,54.666C47.333,53.562 46.437,52.666 45.333,52.666L45.333,56.666ZM25.28,26.463L13.885,16.968L11.325,20.041L22.719,29.536L25.28,26.463ZM9.999,8.671L9.999,1.333L5.999,1.333L5.999,8.671L9.999,8.671ZM37.999,1.333L37.999,8.671L41.999,8.671L41.999,1.333L37.999,1.333ZM34.113,16.968L22.719,26.463L25.28,29.536L36.674,20.041L34.113,16.968ZM9.999,54.666L9.999,47.328L5.999,47.328L5.999,54.666L9.999,54.666ZM13.885,39.031L25.28,29.536L22.719,26.463L11.325,35.959L13.885,39.031ZM22.719,29.536L34.113,39.031L36.674,35.959L25.28,26.463L22.719,29.536ZM37.999,47.328L37.999,54.666L41.999,54.666L41.999,47.328L37.999,47.328ZM34.113,39.031C35.889,40.511 36.485,41.029 36.906,41.627L40.177,39.325C39.381,38.193 38.284,37.3 36.674,35.959L34.113,39.031ZM41.999,47.328C41.999,45.233 42.015,43.818 41.656,42.482L37.793,43.521C37.983,44.227 37.999,45.016 37.999,47.328L41.999,47.328ZM36.906,41.627C37.31,42.201 37.611,42.843 37.793,43.521L41.656,42.482C41.352,41.351 40.851,40.282 40.177,39.325L36.906,41.627ZM9.999,47.328C9.999,45.016 10.015,44.227 10.205,43.521L6.343,42.482C5.983,43.818 5.999,45.233 5.999,47.328L9.999,47.328ZM11.325,35.959C9.715,37.3 8.618,38.193 7.821,39.325L11.093,41.627C11.513,41.029 12.109,40.511 13.885,39.031L11.325,35.959ZM10.205,43.521C10.388,42.843 10.688,42.201 11.093,41.627L7.821,39.325C7.147,40.282 6.647,41.351 6.343,42.482L10.205,43.521ZM37.999,8.671C37.999,10.983 37.983,11.772 37.793,12.478L41.656,13.517C42.015,12.181 41.999,10.767 41.999,8.671L37.999,8.671ZM36.674,20.041C38.284,18.699 39.381,17.806 40.177,16.675L36.906,14.372C36.485,14.97 35.889,15.488 34.113,16.968L36.674,20.041ZM37.793,12.478C37.611,13.157 37.31,13.798 36.906,14.372L40.177,16.675C40.851,15.717 41.352,14.648 41.656,13.517L37.793,12.478ZM13.885,16.968C12.109,15.488 11.513,14.97 11.093,14.372L7.821,16.675C8.618,17.806 9.715,18.699 11.325,20.041L13.885,16.968ZM5.999,8.671C5.999,10.767 5.983,12.181 6.343,13.517L10.205,12.478C10.015,11.772 9.999,10.983 9.999,8.671L5.999,8.671ZM11.093,14.372C10.688,13.798 10.388,13.157 10.205,12.478L6.343,13.517C6.647,14.648 7.147,15.717 7.821,16.675L11.093,14.372ZM2.666,3.333L45.333,3.333L45.333,-0.667L2.666,-0.667L2.666,3.333ZM2.666,56.666L45.333,56.666L45.333,52.666L2.666,52.666L2.666,56.666Z" fill="#79B5EC"/>
</svg>
