<svg width="20" height="18" viewBox="0 0 20 18" fill="none" xmlns="http://www.w3.org/2000/svg" xmlns:xlink="http://www.w3.org/1999/xlink">
<path d="M18.334,8L19.486,8.96C19.95,8.404 19.95,7.596 19.486,7.039L18.334,8ZM13.931,0.373C13.4,-0.264 12.455,-0.35 11.818,0.181C11.182,0.711 11.096,1.657 11.626,2.293L13.931,0.373ZM11.626,13.706C11.096,14.342 11.182,15.288 11.818,15.819C12.455,16.349 13.4,16.263 13.931,15.627L11.626,13.706ZM1.667,6.5C0.839,6.5 0.167,7.171 0.167,8C0.167,8.828 0.839,9.5 1.667,9.5L1.667,6.5ZM19.486,7.039L13.931,0.373L11.626,2.293L17.182,8.96L19.486,7.039ZM17.182,7.039L11.626,13.706L13.931,15.627L19.486,8.96L17.182,7.039ZM18.334,6.5L1.667,6.5L1.667,9.5L18.334,9.5L18.334,6.5Z" transform="rotate(360 10.001 8)" fill="#24AE7C"/>
</svg>
