<svg width="62" height="54" viewBox="0 0 62 54" fill="none" xmlns="http://www.w3.org/2000/svg" xmlns:xlink="http://www.w3.org/1999/xlink">
<path d="M33,20C33,18.343 31.657,17 30,17C28.343,17 27,18.343 27,20L33,20ZM27,30.666C27,32.323 28.343,33.666 30,33.666C31.657,33.666 33,32.323 33,30.666L27,30.666ZM30,38.333C28.343,38.333 27,39.676 27,41.333C27,42.99 28.343,44.333 30,44.333L30,38.333ZM30.027,44.333C31.683,44.333 33.027,42.99 33.027,41.333C33.027,39.676 31.683,38.333 30.027,38.333L30.027,44.333ZM26.307,6.378L28.904,7.881L28.904,7.881L26.307,6.378ZM4.374,44.262L6.971,45.765L6.971,45.765L4.374,44.262ZM55.625,44.262L58.222,42.759L58.222,42.759L55.625,44.262ZM33.692,6.378L36.289,4.874L36.289,4.874L33.692,6.378ZM56.276,50.156L54.512,47.73L54.512,47.73L56.276,50.156ZM57.36,48.276L60.344,48.587L60.344,48.587L57.36,48.276ZM2.64,48.276L-0.344,48.587L-0.344,48.587L2.64,48.276ZM3.724,50.156L5.488,47.73L5.488,47.73L3.724,50.156ZM28.916,2.885L30.135,5.627L30.135,5.627L28.916,2.885ZM31.083,2.885L32.302,0.144L32.302,0.144L31.083,2.885ZM27,20L27,30.666L33,30.666L33,20L27,20ZM30,44.333L30.027,44.333L30.027,38.333L30,38.333L30,44.333ZM23.711,4.874L1.778,42.759L6.971,45.765L28.904,7.881L23.711,4.874ZM8.067,53.666L51.933,53.666L51.933,47.666L8.067,47.666L8.067,53.666ZM58.222,42.759L36.289,4.874L31.096,7.881L53.029,45.765L58.222,42.759ZM51.933,53.666C53.088,53.666 54.162,53.669 55.026,53.59C55.875,53.512 57.021,53.324 58.041,52.583L54.512,47.73C54.83,47.498 55.019,47.565 54.478,47.615C53.953,47.663 53.206,47.666 51.933,47.666L51.933,53.666ZM53.029,45.765C53.667,46.867 54.039,47.515 54.26,47.993C54.488,48.486 54.336,48.357 54.377,47.965L60.344,48.587C60.475,47.333 60.063,46.247 59.706,45.474C59.341,44.686 58.8,43.758 58.222,42.759L53.029,45.765ZM58.04,52.583C59.34,51.638 60.178,50.185 60.344,48.587L54.377,47.965C54.386,47.871 54.436,47.786 54.512,47.73L58.04,52.583ZM1.778,42.759C1.2,43.758 0.659,44.686 0.294,45.474C-0.063,46.247 -0.475,47.333 -0.344,48.587L5.623,47.965C5.664,48.357 5.512,48.486 5.74,47.993C5.961,47.515 6.333,46.867 6.971,45.765L1.778,42.759ZM8.067,47.666C6.794,47.666 6.047,47.663 5.522,47.615C4.981,47.565 5.169,47.498 5.488,47.73L1.959,52.583C2.979,53.324 4.125,53.512 4.974,53.59C5.838,53.669 6.912,53.666 8.067,53.666L8.067,47.666ZM-0.344,48.587C-0.178,50.185 0.66,51.638 1.959,52.583L5.488,47.73C5.564,47.786 5.614,47.871 5.623,47.965L-0.344,48.587ZM28.904,7.881C29.539,6.783 29.915,6.141 30.218,5.712C30.53,5.271 30.494,5.467 30.135,5.627L27.698,0.144C26.548,0.655 25.813,1.55 25.322,2.244C24.822,2.95 24.288,3.879 23.711,4.874L28.904,7.881ZM36.289,4.874C35.712,3.879 35.178,2.95 34.678,2.244C34.186,1.55 33.451,0.655 32.302,0.144L29.865,5.627C29.506,5.467 29.47,5.271 29.782,5.712C30.085,6.141 30.46,6.783 31.096,7.881L36.289,4.874ZM30.135,5.627C30.049,5.665 29.951,5.665 29.865,5.627L32.302,0.144C30.837,-0.508 29.163,-0.508 27.698,0.144L30.135,5.627Z" fill="#FF4F4E"/>
</svg>
