<svg width="40" height="40" viewBox="0 0 40 40" fill="none" xmlns="http://www.w3.org/2000/svg" xmlns:xlink="http://www.w3.org/1999/xlink">
<path d="M19.698,33.725L18.854,34.966L18.854,34.966L19.698,33.725ZM23.831,36.536L24.675,35.296L24.675,35.296L23.831,36.536ZM35.259,34.736L36.443,35.656L36.443,35.656L35.259,34.736ZM36.664,32.93L35.48,32.009L35.48,32.009L36.664,32.93ZM35.176,23.761L36.008,22.513L36.008,22.513L35.176,23.761ZM33.858,22.882L33.026,24.13L33.026,24.13L33.858,22.882ZM22.137,22.462L22.865,21.15L22.865,21.15L22.137,22.462ZM21.544,22.132L20.815,23.443L20.815,23.443L21.544,22.132ZM6.275,20.302L5.034,21.146L5.034,21.146L6.275,20.302ZM3.464,16.169L4.704,15.325L4.704,15.325L3.464,16.169ZM5.264,4.741L6.185,5.925L6.185,5.925L5.264,4.741ZM7.07,3.336L6.149,2.152L6.149,2.152L7.07,3.336ZM16.239,4.824L17.487,3.992L17.487,3.992L16.239,4.824ZM17.118,6.142L15.87,6.974L15.87,6.974L17.118,6.142ZM17.538,17.863L16.227,18.592L16.227,18.592L17.538,17.863ZM17.868,18.456L19.179,17.728L19.179,17.728L17.868,18.456ZM17.373,10.237L16.031,9.566L16.031,9.566L17.373,10.237ZM29.763,22.627L29.092,21.286L29.092,21.286L29.763,22.627ZM18.854,34.966L22.988,37.777L24.675,35.296L20.541,32.485L18.854,34.966ZM36.443,35.656L37.848,33.851L35.48,32.009L34.075,33.815L36.443,35.656ZM36.008,22.513L34.69,21.634L33.026,24.13L34.344,25.009L36.008,22.513ZM22.865,21.15L22.272,20.821L20.815,23.443L21.409,23.773L22.865,21.15ZM7.515,19.459L4.704,15.325L2.223,17.012L5.034,21.146L7.515,19.459ZM6.185,5.925L7.991,4.52L6.149,2.152L4.344,3.557L6.185,5.925ZM14.991,5.656L15.87,6.974L18.366,5.31L17.487,3.992L14.991,5.656ZM16.227,18.592L16.557,19.185L19.179,17.728L18.85,17.135L16.227,18.592ZM16.031,9.566C14.603,12.423 14.676,15.8 16.227,18.592L18.85,17.135C17.78,15.209 17.729,12.879 18.714,10.908L16.031,9.566ZM15.87,6.974C16.385,7.746 16.446,8.736 16.031,9.566L18.714,10.908C19.611,9.114 19.478,6.978 18.366,5.31L15.87,6.974ZM7.991,4.52C10.211,2.793 13.431,3.316 14.991,5.656L17.487,3.992C14.96,0.201 9.746,-0.645 6.149,2.152L7.991,4.52ZM4.704,15.325C2.641,12.291 3.29,8.177 6.185,5.925L4.344,3.557C0.199,6.781 -0.729,12.67 2.223,17.012L4.704,15.325ZM22.272,20.821C20.973,20.099 19.901,19.027 19.179,17.728L16.557,19.185C17.551,20.974 19.026,22.449 20.815,23.443L22.272,20.821ZM29.092,21.286C27.121,22.271 24.791,22.22 22.865,21.15L21.408,23.773C24.2,25.324 27.577,25.397 30.434,23.969L29.092,21.286ZM34.69,21.634C33.022,20.522 30.886,20.389 29.092,21.286L30.434,23.969C31.264,23.554 32.254,23.615 33.026,24.13L34.69,21.634ZM37.848,33.851C40.645,30.254 39.799,25.04 36.008,22.513L34.344,25.009C36.684,26.569 37.207,29.789 35.48,32.009L37.848,33.851ZM22.988,37.777C27.33,40.729 33.219,39.801 36.443,35.656L34.075,33.815C31.823,36.71 27.709,37.359 24.675,35.296L22.988,37.777ZM20.541,32.485C15.418,29.001 10.999,24.582 7.515,19.459L5.034,21.146C8.73,26.581 13.419,31.27 18.854,34.966L20.541,32.485Z" fill="#686B6E"/>
</svg>
