<svg width="14" height="14" viewBox="0 0 14 14" fill="none" xmlns="http://www.w3.org/2000/svg" xmlns:xlink="http://www.w3.org/1999/xlink">
<path d="M12.061,2.061C12.646,1.475 12.646,0.525 12.061,-0.061C11.475,-0.646 10.525,-0.646 9.939,-0.061L12.061,2.061ZM-0.061,9.939C-0.646,10.525 -0.646,11.475 -0.061,12.061C0.525,12.646 1.475,12.646 2.061,12.061L-0.061,9.939ZM2.061,-0.061C1.475,-0.646 0.525,-0.646 -0.061,-0.061C-0.646,0.525 -0.646,1.475 -0.061,2.061L2.061,-0.061ZM9.939,12.061C10.525,12.646 11.475,12.646 12.061,12.061C12.646,11.475 12.646,10.525 12.061,9.939L9.939,12.061ZM9.939,-0.061L-0.061,9.939L2.061,12.061L12.061,2.061L9.939,-0.061ZM-0.061,2.061L9.939,12.061L12.061,9.939L2.061,-0.061L-0.061,2.061Z" fill="#F37877"/>
</svg>
