<svg width="20" height="18" viewBox="0 0 20 18" fill="none" xmlns="http://www.w3.org/2000/svg" xmlns:xlink="http://www.w3.org/1999/xlink">
<path d="M18.333,8L19.485,8.96C19.949,8.404 19.949,7.596 19.485,7.039L18.333,8ZM13.929,0.373C13.399,-0.264 12.453,-0.35 11.817,0.181C11.18,0.711 11.094,1.657 11.625,2.293L13.929,0.373ZM11.625,13.706C11.094,14.342 11.18,15.288 11.817,15.819C12.453,16.349 13.399,16.263 13.929,15.627L11.625,13.706ZM1.666,6.5C0.838,6.5 0.166,7.171 0.166,8C0.166,8.828 0.838,9.5 1.666,9.5L1.666,6.5ZM19.485,7.039L13.929,0.373L11.625,2.293L17.18,8.96L19.485,7.039ZM17.18,7.039L11.625,13.706L13.929,15.627L19.485,8.96L17.18,7.039ZM18.333,6.5L1.666,6.5L1.666,9.5L18.333,9.5L18.333,6.5Z" fill="#24AE7C"/>
</svg>
