<svg width="32" height="40" viewBox="0 0 32 40" fill="none" xmlns="http://www.w3.org/2000/svg" xmlns:xlink="http://www.w3.org/1999/xlink">
<path d="M28.5,38C28.5,38.828 29.172,39.5 30,39.5C30.828,39.5 31.5,38.828 31.5,38L28.5,38ZM0.5,38C0.5,38.828 1.172,39.5 2,39.5C2.828,39.5 3.5,38.828 3.5,38L0.5,38ZM22.5,10C22.5,13.59 19.59,16.5 16,16.5L16,19.5C21.247,19.5 25.5,15.247 25.5,10L22.5,10ZM16,16.5C12.41,16.5 9.5,13.59 9.5,10L6.5,10C6.5,15.247 10.753,19.5 16,19.5L16,16.5ZM9.5,10C9.5,6.41 12.41,3.5 16,3.5L16,0.5C10.753,0.5 6.5,4.753 6.5,10L9.5,10ZM16,3.5C19.59,3.5 22.5,6.41 22.5,10L25.5,10C25.5,4.753 21.247,0.5 16,0.5L16,3.5ZM14,27.5L18,27.5L18,24.5L14,24.5L14,27.5ZM18,27.5C23.799,27.5 28.5,32.201 28.5,38L31.5,38C31.5,30.544 25.456,24.5 18,24.5L18,27.5ZM14,24.5C6.544,24.5 0.5,30.544 0.5,38L3.5,38C3.5,32.201 8.201,27.5 14,27.5L14,24.5Z" fill="#CDE9DF"/>
</svg>
