<svg width="40" height="32" viewBox="0 0 40 32" fill="none" xmlns="http://www.w3.org/2000/svg" xmlns:xlink="http://www.w3.org/1999/xlink">
<path d="M4.707,3.293C4.317,2.902 3.683,2.902 3.293,3.293C2.902,3.683 2.902,4.317 3.293,4.707L4.707,3.293ZM22.828,17.172L22.121,16.464L22.121,16.464L22.828,17.172ZM36.707,4.707C37.098,4.317 37.098,3.683 36.707,3.293C36.317,2.902 35.683,2.902 35.293,3.293L36.707,4.707ZM6,3L34,3L34,1L6,1L6,3ZM37,6L37,24L39,24L39,6L37,6ZM32,29L8,29L8,31L32,31L32,29ZM3,24L3,6L1,6L1,24L3,24ZM34,3C35.657,3 37,4.343 37,6L39,6C39,3.239 36.761,1 34,1L34,3ZM6,1C3.239,1 1,3.239 1,6L3,6C3,4.343 4.343,3 6,3L6,1ZM16.464,17.879C18.417,19.831 21.583,19.831 23.536,17.879L22.121,16.464C20.95,17.636 19.05,17.636 17.879,16.464L16.464,17.879ZM3.293,4.707L15.293,16.707L16.707,15.293L4.707,3.293L3.293,4.707ZM15.293,16.707L16.464,17.879L17.879,16.464L16.707,15.293L15.293,16.707ZM23.536,17.879L24.707,16.707L23.293,15.293L22.121,16.464L23.536,17.879ZM24.707,16.707L36.707,4.707L35.293,3.293L23.293,15.293L24.707,16.707ZM36.95,27.536L24.707,15.293L23.293,16.707L35.536,28.95L36.95,27.536ZM37,24C37,25.381 36.441,26.63 35.536,27.536L36.95,28.95C38.215,27.684 39,25.933 39,24L37,24ZM35.536,27.536C34.63,28.441 33.381,29 32,29L32,31C33.933,31 35.684,30.215 36.95,28.95L35.536,27.536ZM4.464,28.95L16.707,16.707L15.293,15.293L3.05,27.536L4.464,28.95ZM8,29C6.619,29 5.37,28.441 4.464,27.536L3.05,28.95C4.316,30.215 6.067,31 8,31L8,29ZM4.464,27.536C3.559,26.63 3,25.381 3,24L1,24C1,25.933 1.785,27.684 3.05,28.95L4.464,27.536Z" fill="#CDE9DF"/>
</svg>
