<svg width="28" height="28" viewBox="0 0 28 28" fill="none" xmlns="http://www.w3.org/2000/svg" xmlns:xlink="http://www.w3.org/1999/xlink">
<path d="M3.395,1.272C2.809,0.687 1.859,0.687 1.273,1.272C0.688,1.858 0.688,2.808 1.273,3.394L3.395,1.272ZM24.607,26.727C25.192,27.313 26.142,27.313 26.728,26.727C27.314,26.141 27.314,25.191 26.728,24.606L24.607,26.727ZM26.728,3.394C27.314,2.808 27.314,1.858 26.728,1.272C26.142,0.687 25.192,0.687 24.607,1.272L26.728,3.394ZM1.273,24.606C0.688,25.191 0.688,26.141 1.273,26.727C1.859,27.313 2.809,27.313 3.395,26.727L1.273,24.606ZM1.273,3.394L24.607,26.727L26.728,24.606L3.395,1.272L1.273,3.394ZM24.607,1.272L1.273,24.606L3.395,26.727L26.728,3.394L24.607,1.272Z" fill="#FFFFFF"/>
</svg>
