<svg width="36" height="40" viewBox="0 0 36 40" fill="none" xmlns="http://www.w3.org/2000/svg" xmlns:xlink="http://www.w3.org/1999/xlink">
<path d="M34,18.067C34.92,18.067 35.667,17.32 35.667,16.4C35.667,15.48 34.92,14.733 34,14.733L34,18.067ZM2,14.733C1.08,14.733 0.333,15.48 0.333,16.4C0.333,17.32 1.08,18.067 2,18.067L2,14.733ZM4.912,37.411L4.148,38.893L4.148,38.893L4.912,37.411ZM2.581,35.052L1.093,35.801L2.581,35.052ZM33.419,35.052L34.907,35.801L33.419,35.052ZM31.088,37.411L31.852,38.893L31.852,38.893L31.088,37.411ZM31.088,6.189L31.852,4.707L31.852,4.707L31.088,6.189ZM33.419,8.548L34.907,7.799L33.419,8.548ZM4.912,6.189L4.148,4.707L4.148,4.707L4.912,6.189ZM2.581,8.548L1.093,7.799L2.581,8.548ZM26.778,2C26.778,1.08 26.032,0.333 25.111,0.333C24.191,0.333 23.444,1.08 23.444,2L26.778,2ZM23.444,9.2C23.444,10.12 24.191,10.867 25.111,10.867C26.032,10.867 26.778,10.12 26.778,9.2L23.444,9.2ZM12.556,2C12.556,1.08 11.809,0.333 10.889,0.333C9.968,0.333 9.222,1.08 9.222,2L12.556,2ZM9.222,9.2C9.222,10.12 9.968,10.867 10.889,10.867C11.809,10.867 12.556,10.12 12.556,9.2L9.222,9.2ZM34,14.733L2,14.733L2,18.067L34,18.067L34,14.733ZM10.533,7.267L25.467,7.267L25.467,3.933L10.533,3.933L10.533,7.267ZM32.333,14.24L32.333,29.36L35.667,29.36L35.667,14.24L32.333,14.24ZM25.467,36.333L10.533,36.333L10.533,39.667L25.467,39.667L25.467,36.333ZM3.667,29.36L3.667,14.24L0.333,14.24L0.333,29.36L3.667,29.36ZM10.533,36.333C9.012,36.333 7.973,36.332 7.168,36.265C6.383,36.201 5.971,36.082 5.676,35.93L4.148,38.893C4.994,39.329 5.899,39.505 6.893,39.587C7.867,39.668 9.068,39.667 10.533,39.667L10.533,36.333ZM0.333,29.36C0.333,30.845 0.332,32.058 0.411,33.041C0.492,34.043 0.665,34.951 1.093,35.801L4.07,34.302C3.916,33.997 3.798,33.572 3.734,32.773C3.668,31.955 3.667,30.899 3.667,29.36L0.333,29.36ZM5.676,35.93C4.988,35.575 4.424,35.007 4.07,34.302L1.093,35.801C1.761,37.129 2.829,38.212 4.148,38.893L5.676,35.93ZM32.333,29.36C32.333,30.899 32.332,31.955 32.266,32.773C32.202,33.572 32.084,33.997 31.93,34.302L34.907,35.801C35.335,34.951 35.508,34.043 35.589,33.041C35.668,32.058 35.667,30.845 35.667,29.36L32.333,29.36ZM25.467,39.667C26.932,39.667 28.133,39.668 29.107,39.587C30.101,39.505 31.006,39.329 31.852,38.893L30.324,35.93C30.029,36.082 29.617,36.201 28.832,36.265C28.027,36.332 26.988,36.333 25.467,36.333L25.467,39.667ZM31.93,34.302C31.576,35.007 31.012,35.575 30.324,35.93L31.852,38.893C33.171,38.212 34.239,37.129 34.907,35.801L31.93,34.302ZM25.467,7.267C26.988,7.267 28.027,7.268 28.832,7.335C29.617,7.399 30.029,7.518 30.324,7.67L31.852,4.707C31.006,4.271 30.101,4.095 29.107,4.013C28.133,3.932 26.932,3.933 25.467,3.933L25.467,7.267ZM35.667,14.24C35.667,12.755 35.668,11.542 35.589,10.559C35.508,9.557 35.335,8.649 34.907,7.799L31.93,9.298C32.084,9.603 32.202,10.028 32.266,10.827C32.332,11.645 32.333,12.701 32.333,14.24L35.667,14.24ZM30.324,7.67C31.012,8.025 31.576,8.593 31.93,9.298L34.907,7.799C34.239,6.471 33.171,5.388 31.852,4.707L30.324,7.67ZM10.533,3.933C9.068,3.933 7.867,3.932 6.893,4.013C5.899,4.095 4.994,4.271 4.148,4.707L5.676,7.67C5.971,7.518 6.383,7.399 7.168,7.335C7.973,7.268 9.012,7.267 10.533,7.267L10.533,3.933ZM3.667,14.24C3.667,12.701 3.668,11.645 3.734,10.827C3.798,10.028 3.916,9.603 4.07,9.298L1.093,7.799C0.665,8.649 0.492,9.557 0.411,10.559C0.332,11.542 0.333,12.755 0.333,14.24L3.667,14.24ZM4.148,4.707C2.829,5.388 1.761,6.471 1.093,7.799L4.07,9.298C4.424,8.593 4.988,8.025 5.676,7.67L4.148,4.707ZM23.444,2L23.444,9.2L26.778,9.2L26.778,2L23.444,2ZM9.222,2L9.222,9.2L12.556,9.2L12.556,2L9.222,2Z" fill="#CDE9DF"/>
</svg>
