<svg width="160" height="160" viewBox="0 0 160 160" fill="none" xmlns="http://www.w3.org/2000/svg" xmlns:xlink="http://www.w3.org/1999/xlink">
<path d="M50.202,76.464C48.25,74.512 45.084,74.512 43.131,76.464C41.179,78.417 41.179,81.583 43.131,83.536L50.202,76.464ZM65.774,99.107L62.239,102.643L62.239,102.643L65.774,99.107ZM77.559,99.107L74.024,95.572L74.024,95.572L77.559,99.107ZM116.869,66.869C118.821,64.916 118.821,61.75 116.869,59.798C114.916,57.845 111.75,57.845 109.798,59.798L116.869,66.869ZM150,80C150,118.66 118.66,150 80,150L80,160C124.183,160 160,124.183 160,80L150,80ZM80,150C41.34,150 10,118.66 10,80L0,80C0,124.183 35.817,160 80,160L80,150ZM10,80C10,41.34 41.34,10 80,10L80,0C35.817,0 0,35.817 0,80L10,80ZM80,10C118.66,10 150,41.34 150,80L160,80C160,35.817 124.183,0 80,0L80,10ZM43.131,83.536L62.239,102.643L69.31,95.572L50.202,76.464L43.131,83.536ZM81.095,102.643L116.869,66.869L109.798,59.798L74.024,95.572L81.095,102.643ZM62.239,102.643C67.446,107.85 75.888,107.85 81.095,102.643L74.024,95.572C72.722,96.874 70.611,96.874 69.31,95.572L62.239,102.643Z" fill="#4AC97E"/>
</svg>
