<svg width="24" height="18" viewBox="0 0 24 18" fill="none" xmlns="http://www.w3.org/2000/svg" xmlns:xlink="http://www.w3.org/1999/xlink">
<path d="M4.459,6.432C3.704,5.626 2.438,5.585 1.632,6.341C0.826,7.096 0.785,8.362 1.541,9.168L4.459,6.432ZM22.459,4.368C23.215,3.562 23.174,2.296 22.368,1.541C21.562,0.785 20.296,0.826 19.541,1.632L22.459,4.368ZM1.541,9.168L6.832,14.812L9.75,12.076L4.459,6.432L1.541,9.168ZM12.668,14.812L22.459,4.368L19.541,1.632L9.75,12.076L12.668,14.812ZM6.832,14.812C8.412,16.497 11.088,16.497 12.668,14.812L9.75,12.076L9.75,12.076L6.832,14.812Z" fill="#0C1132"/>
</svg>
